<svg width="152" height="67" viewBox="0 0 152 67" fill="none" xmlns="http://www.w3.org/2000/svg">
<path d="M47.2434 34.5858L60.6831 47.976C63.589 50.8454 65.0418 53.3162 65.0418 55.3885C65.0418 57.3811 63.589 59.8121 60.6831 62.6814C57.7771 65.471 55.3153 66.8658 53.2973 66.8658C51.2793 66.8658 48.8174 65.4312 45.9115 62.5619L32.5929 49.2912L19.1532 62.5619C16.2474 65.4312 13.7855 66.8658 11.7675 66.8658C9.83028 66.8658 7.36835 65.471 4.38175 62.6814C1.47588 59.8121 0.0229492 57.3811 0.0229492 55.3885C0.0229492 53.3162 1.47588 50.8454 4.38175 47.976L17.8214 34.5858L4.38175 21.1957C1.47588 18.3263 0.0229492 15.8953 0.0229492 13.9028C0.0229492 11.8305 1.47588 9.35961 4.38175 6.49029C7.36835 3.62095 9.83028 2.18628 11.7675 2.18628C13.7855 2.18628 16.2474 3.62095 19.1532 6.49029L32.5929 19.8805L45.9115 6.49029C48.8174 3.62095 51.2793 2.18628 53.2973 2.18628C55.3153 2.18628 57.7771 3.62095 60.6831 6.49029C63.589 9.35961 65.0418 11.8305 65.0418 13.9028C65.0418 15.8953 63.589 18.3263 60.6831 21.1957L47.2434 34.5858Z" fill="white"/>
<path fill-rule="evenodd" clip-rule="evenodd" d="M147.228 3.10671C151.963 7.35476 152.315 14.589 148.012 19.2647L108.784 61.8994C106.621 64.251 103.564 65.6079 100.347 65.6453C97.129 65.6827 94.0408 64.397 91.8218 62.0963L70.7591 40.2589C66.3469 35.6843 66.5257 28.444 71.1586 24.0872C75.7913 19.7303 83.124 19.9069 87.5363 24.4815L100.01 37.4145L130.865 3.88111C135.166 -0.79465 142.493 -1.14136 147.228 3.10671Z" fill="#3051FC"/>
</svg>
