<svg width="811" height="811" viewBox="0 0 811 811" fill="none" xmlns="http://www.w3.org/2000/svg">
<g clip-path="url(#clip0)">
<path fill-rule="evenodd" clip-rule="evenodd" d="M542.708 3.05176e-05H537.708V17.2602C537.708 17.9232 537.972 18.5591 538.44 19.0279C538.909 19.4968 539.545 19.7602 540.208 19.7602H600.312C601.693 19.7602 602.812 18.6409 602.812 17.2602C602.812 15.8795 601.693 14.7602 600.312 14.7602L542.708 14.7602V3.05176e-05ZM525.5 3.05176e-05H530.5V81C530.5 82.3807 529.381 83.5 528 83.5C526.619 83.5 525.5 82.3807 525.5 81V3.05176e-05ZM429.5 3.05176e-05H434.5V68C434.5 69.3807 433.381 70.5 432 70.5C430.619 70.5 429.5 69.3807 429.5 68V3.05176e-05ZM296.292 3.05176e-05H309.708C311.133 1.5923 312 3.69495 312 6C312 10.9706 307.971 15 303 15C298.029 15 294 10.9706 294 6C294 3.69495 294.867 1.5923 296.292 3.05176e-05ZM248.464 3.05176e-05H255.536L232.768 22.7678C231.792 23.7441 230.209 23.7441 229.232 22.7678L206.465 3.05176e-05H213.536L231 17.4645L248.464 3.05176e-05ZM129.536 3.05176e-05L147 17.4645L164.464 3.05176e-05H171.536L148.768 22.7678C147.791 23.7441 146.209 23.7441 145.232 22.7678L122.465 3.05176e-05H129.536ZM0 106.536V99.4645L12.5 111.964L48.2322 76.2322C49.2085 75.2559 50.7915 75.2559 51.7678 76.2322C52.7441 77.2085 52.7441 78.7915 51.7678 79.7678L16.0355 115.5L51.7678 151.232C52.7441 152.209 52.7441 153.791 51.7678 154.768C50.7915 155.744 49.2085 155.744 48.2322 154.768L12.5 119.036L0 131.536V124.464L8.96446 115.5L0 106.536ZM0 243.306V238.306H25.2081C25.8712 238.306 26.5071 238.57 26.9759 239.038C27.4448 239.507 27.7081 240.143 27.7081 240.806L27.7081 298.41H85.3122C86.6929 298.41 87.8122 299.53 87.8122 300.91C87.8122 302.291 86.6929 303.41 85.3122 303.41H25.2081C24.5451 303.41 23.9092 303.147 23.4404 302.678C22.9715 302.209 22.7081 301.573 22.7081 300.91V243.306H0ZM0 275.001V258.999C1.67132 257.744 3.74879 257 6 257C11.5229 257 16 261.477 16 267C16 272.523 11.5229 277 6 277C3.74879 277 1.67132 276.256 0 275.001ZM0 348.536V341.464L13 354.464L57.2322 310.232C58.2085 309.256 59.7915 309.256 60.7678 310.232C61.7441 311.209 61.7441 312.791 60.7678 313.768L16.5355 358L60.7678 402.232C61.7441 403.209 61.7441 404.791 60.7678 405.768C59.7915 406.744 58.2085 406.744 57.2322 405.768L13 361.536L0 374.536V367.464L9.46446 358L0 348.536ZM0 475.161L41.2243 516.76C41.9375 517.479 43.0145 517.697 43.9515 517.312C44.8885 516.926 45.5 516.013 45.5 515V404C45.5 402.987 44.8884 402.074 43.9515 401.688C43.0145 401.303 41.9375 401.521 41.2243 402.24L0 443.839V450.943L40.5 410.074V508.926L0 468.057V475.161ZM0 614.786V609.786H34.7916V568.782C34.7916 568.119 35.055 567.483 35.5238 567.014C35.9926 566.545 36.6285 566.282 37.2916 566.282H78.2955V525.278C78.2955 524.615 78.5589 523.979 79.0277 523.51C79.4965 523.041 80.1324 522.778 80.7955 522.778H124.299C125.68 522.778 126.799 523.897 126.799 525.278C126.799 526.659 125.68 527.778 124.299 527.778H83.2955V568.782C83.2955 569.445 83.0321 570.081 82.5632 570.55C82.0944 571.019 81.4585 571.282 80.7955 571.282H39.7916L39.7916 612.286C39.7916 612.949 39.5282 613.585 39.0593 614.054C38.5905 614.522 37.9546 614.786 37.2916 614.786H0ZM0 714.72C5.59242 719.272 12.7276 722 20.5 722C38.4492 722 53 707.449 53 689.5C53 671.551 38.4492 657 20.5 657C12.7276 657 5.59242 659.728 0 664.28V671.169C5.03551 665.542 12.3541 662 20.5 662C35.6878 662 48 674.312 48 689.5C48 704.688 35.6878 717 20.5 717C12.3541 717 5.03551 713.458 0 707.831V714.72ZM0 758.533V724.467C5.96615 727.801 10 734.18 10 741.5C10 748.82 5.96615 755.199 0 758.533ZM33 811C33 792.775 18.2254 778 0 778V783C15.464 783 28 795.536 28 811H33ZM87.5356 811H80.4644L103.232 788.232C104.209 787.256 105.791 787.256 106.768 788.232L129.536 811H122.465L105 793.536L87.5356 811ZM206.465 811L189 793.536L171.536 811H164.464L187.232 788.232C188.209 787.256 189.792 787.256 190.768 788.232L213.536 811H206.465ZM309.708 811H296.292C297.94 809.159 300.335 808 303 808C305.665 808 308.06 809.159 309.708 811ZM336.536 811H329.464L349.464 791L316.232 757.768C315.256 756.791 315.256 755.209 316.232 754.232C317.209 753.256 318.791 753.256 319.768 754.232L353 787.464L386.232 754.232C387.209 753.256 388.791 753.256 389.768 754.232C390.744 755.209 390.744 756.791 389.768 757.768L356.536 791L376.536 811H369.464L353 794.536L336.536 811ZM434.5 811H429.5V796C429.5 794.619 430.619 793.5 432 793.5C433.381 793.5 434.5 794.619 434.5 796V811ZM530.5 811H525.5V784C525.5 782.619 526.619 781.5 528 781.5C529.381 781.5 530.5 782.619 530.5 784V811ZM542.708 811H537.708V770.656H480.104C479.441 770.656 478.805 770.393 478.336 769.924C477.867 769.455 477.604 768.819 477.604 768.156L477.604 710.552H420C418.619 710.552 417.5 709.433 417.5 708.052C417.5 706.671 418.619 705.552 420 705.552H480.104C480.767 705.552 481.403 705.815 481.872 706.284C482.341 706.753 482.604 707.389 482.604 708.052V765.656H540.208C540.871 765.656 541.507 765.92 541.976 766.388C542.445 766.857 542.708 767.493 542.708 768.156V811ZM611.141 811H596.859C595.09 809.196 594 806.725 594 804C594 798.477 598.477 794 604 794C609.523 794 614 798.477 614 804C614 806.725 612.91 809.196 611.141 811ZM678.536 811L662.768 795.232C661.791 794.256 660.209 794.256 659.232 795.232L643.464 811H650.536L661 800.536L671.464 811H678.536ZM758.983 811H701.017C701.006 810.668 701 810.335 701 810C701 793.984 713.984 781 730 781C746.016 781 759 793.984 759 810C759 810.335 758.994 810.668 758.983 811ZM811 724.467V758.533C808.189 760.105 804.949 761 801.5 761C790.73 761 782 752.27 782 741.5C782 730.73 790.73 722 801.5 722C804.949 722 808.189 722.896 811 724.467ZM811 664.28C803.678 670.239 799 679.323 799 689.5C799 699.677 803.678 708.761 811 714.72V707.831C806.647 702.966 804 696.542 804 689.5C804 682.458 806.647 676.034 811 671.169V664.28ZM811 609.786V614.786H806C804.619 614.786 803.5 613.667 803.5 612.286C803.5 610.905 804.619 609.786 806 609.786H811ZM811 555.464V562.536L794.5 546.036L770.768 569.768C769.791 570.744 768.209 570.744 767.232 569.768C766.256 568.791 766.256 567.209 767.232 566.232L790.964 542.5L767.232 518.768C766.256 517.791 766.256 516.209 767.232 515.232C768.209 514.256 769.791 514.256 770.768 515.232L794.5 538.964L811 522.464V529.536L798.036 542.5L811 555.464ZM811 443.839L797.224 457.74C796.259 458.715 796.259 460.285 797.224 461.26L811 475.161V468.057L802.52 459.5L811 450.943V443.839ZM811 258.999V275.001C808.571 273.176 807 270.272 807 267C807 263.728 808.571 260.824 811 258.999ZM811 238.306V243.306H774.756C774.093 243.306 773.458 243.043 772.989 242.574C772.52 242.105 772.256 241.469 772.256 240.806L772.256 183.202H714.652C713.272 183.202 712.152 182.083 712.152 180.702C712.152 179.321 713.272 178.202 714.652 178.202H774.756C775.419 178.202 776.055 178.466 776.524 178.934C776.993 179.403 777.256 180.039 777.256 180.702V238.306H811ZM701.017 3.05176e-05L758.983 3.05176e-05C758.456 15.5532 745.682 28 730 28C714.318 28 701.544 15.5532 701.017 3.05176e-05ZM643.464 3.05176e-05L604.232 39.2322C603.517 39.9472 603.303 41.0225 603.69 41.9567C604.077 42.8909 604.989 43.5 606 43.5H716C717.011 43.5 717.923 42.8909 718.31 41.9567C718.697 41.0225 718.483 39.9472 717.768 39.2322L678.536 3.05176e-05H671.464L709.964 38.5H612.036L650.536 3.05176e-05H643.464ZM596.859 3.05176e-05H611.141C609.326 1.85138 606.797 3 604 3C601.203 3 598.674 1.85138 596.859 3.05176e-05ZM778 0H783C783 15.464 795.536 28 811 28V33C792.775 33 778 18.2254 778 0ZM811 99.4645V106.536L784.232 79.7678C783.256 78.7915 783.256 77.2085 784.232 76.2322C785.209 75.2559 786.791 75.2559 787.768 76.2322L811 99.4645ZM811 124.464V131.536L787.768 154.768C786.791 155.744 785.209 155.744 784.232 154.768C783.256 153.791 783.256 152.209 784.232 151.232L811 124.464ZM811 341.464V348.536L776.232 313.768C775.256 312.791 775.256 311.209 776.232 310.232C777.209 309.256 778.791 309.256 779.768 310.232L811 341.464ZM811 367.464V374.536L779.768 405.768C778.791 406.744 777.209 406.744 776.232 405.768C775.256 404.791 775.256 403.209 776.232 402.232L811 367.464ZM811 778V783C795.536 783 783 795.536 783 811H778C778 792.775 792.775 778 811 778ZM255.536 811H248.464L271.232 788.232C272.209 787.256 273.792 787.256 274.768 788.232C275.744 789.209 275.744 790.791 274.768 791.768L255.536 811ZM0 562.536V555.464L10.7678 566.232C11.7441 567.209 11.7441 568.791 10.7678 569.768C9.79146 570.744 8.20854 570.744 7.23223 569.768L0 562.536ZM0 529.536V522.464L7.23223 515.232C8.20854 514.256 9.79146 514.256 10.7678 515.232C11.7441 516.209 11.7441 517.791 10.7678 518.768L0 529.536ZM0 33V28C15.464 28 28 15.464 28 3.05176e-05L33 3.05176e-05C33 18.2254 18.2254 33 0 33ZM80.4645 3.05176e-05H87.5355L64.7678 22.7678C63.7915 23.7441 62.2086 23.7441 61.2323 22.7678C60.256 21.7915 60.256 20.2085 61.2323 19.2322L80.4645 3.05176e-05ZM329.464 3.05176e-05H336.535L319.768 16.7678C318.791 17.7441 317.209 17.7441 316.232 16.7678C315.256 15.7915 315.256 14.2085 316.232 13.2322L329.464 3.05176e-05ZM369.465 3.05176e-05H376.536L389.768 13.2322C390.744 14.2085 390.744 15.7915 389.768 16.7678C388.791 17.7441 387.209 17.7441 386.232 16.7678L369.465 3.05176e-05ZM66.5 62C72.8513 62 78 56.8513 78 50.5C78 44.1487 72.8513 39 66.5 39C60.1487 39 55 44.1487 55 50.5C55 56.8513 60.1487 62 66.5 62ZM206 139C206 155.569 192.569 169 176 169C159.431 169 146 155.569 146 139C146 122.431 159.431 109 176 109C192.569 109 206 122.431 206 139ZM96 265C96 274.389 88.3888 282 79 282C69.6112 282 62 274.389 62 265C62 255.611 69.6112 248 79 248C88.3888 248 96 255.611 96 265ZM138 555C144.627 555 150 549.627 150 543C150 536.373 144.627 531 138 531C131.373 531 126 536.373 126 543C126 549.627 131.373 555 138 555ZM322 575.5C322 585.717 313.717 594 303.5 594C293.283 594 285 585.717 285 575.5C285 565.283 293.283 557 303.5 557C313.717 557 322 565.283 322 575.5ZM325.5 348C332.404 348 338 342.404 338 335.5C338 328.596 332.404 323 325.5 323C318.596 323 313 328.596 313 335.5C313 342.404 318.596 348 325.5 348ZM338 264.5C338 271.404 332.404 277 325.5 277C318.596 277 313 271.404 313 264.5C313 257.596 318.596 252 325.5 252C332.404 252 338 257.596 338 264.5ZM804 267C804 272.523 799.523 277 794 277C788.477 277 784 272.523 784 267C784 261.477 788.477 257 794 257C799.523 257 804 261.477 804 267ZM653 114C658.523 114 663 109.523 663 104C663 98.4772 658.523 94 653 94C647.477 94 643 98.4772 643 104C643 109.523 647.477 114 653 114ZM668.5 711C673.194 711 677 707.194 677 702.5C677 697.806 673.194 694 668.5 694C663.806 694 660 697.806 660 702.5C660 707.194 663.806 711 668.5 711ZM593 692.5C593 701.613 585.613 709 576.5 709C567.387 709 560 701.613 560 692.5C560 683.387 567.387 676 576.5 676C585.613 676 593 683.387 593 692.5ZM727 702.5C727 705.538 724.538 708 721.5 708C718.462 708 716 705.538 716 702.5C716 699.462 718.462 697 721.5 697C724.538 697 727 699.462 727 702.5ZM477 573C480.866 573 484 569.866 484 566C484 562.134 480.866 559 477 559C473.134 559 470 562.134 470 566C470 569.866 473.134 573 477 573ZM379 566C379 569.866 375.866 573 372 573C368.134 573 365 569.866 365 566C365 562.134 368.134 559 372 559C375.866 559 379 562.134 379 566ZM372 557C375.866 557 379 553.866 379 550C379 546.134 375.866 543 372 543C368.134 543 365 546.134 365 550C365 553.866 368.134 557 372 557ZM367 202C367 206.971 362.971 211 358 211C353.029 211 349 206.971 349 202C349 197.029 353.029 193 358 193C362.971 193 367 197.029 367 202ZM358 191C362.971 191 367 186.971 367 182C367 177.029 362.971 173 358 173C353.029 173 349 177.029 349 182C349 186.971 353.029 191 358 191ZM367 162C367 166.971 362.971 171 358 171C353.029 171 349 166.971 349 162C349 157.029 353.029 153 358 153C362.971 153 367 157.029 367 162ZM487 150C491.971 150 496 145.971 496 141C496 136.029 491.971 132 487 132C482.029 132 478 136.029 478 141C478 145.971 482.029 150 487 150ZM698 246.5C698 249.538 695.538 252 692.5 252C689.462 252 687 249.538 687 246.5C687 243.462 689.462 241 692.5 241C695.538 241 698 243.462 698 246.5ZM721.5 423C724.538 423 727 420.538 727 417.5C727 414.462 724.538 412 721.5 412C718.462 412 716 414.462 716 417.5C716 420.538 718.462 423 721.5 423ZM608 488C608 491.866 604.866 495 601 495C597.134 495 594 491.866 594 488C594 484.134 597.134 481 601 481C604.866 481 608 484.134 608 488ZM567.5 500C570.538 500 573 497.538 573 494.5C573 491.462 570.538 489 567.5 489C564.462 489 562 491.462 562 494.5C562 497.538 564.462 500 567.5 500ZM616.5 592C637.763 592 655 574.763 655 553.5C655 532.237 637.763 515 616.5 515C595.237 515 578 532.237 578 553.5C578 574.763 595.237 592 616.5 592ZM473.5 325C506.913 325 534 297.913 534 264.5C534 231.087 506.913 204 473.5 204C440.087 204 413 231.087 413 264.5C413 297.913 440.087 325 473.5 325ZM529 264.5C529 295.152 504.152 320 473.5 320C442.848 320 418 295.152 418 264.5C418 233.848 442.848 209 473.5 209C504.152 209 529 233.848 529 264.5ZM223 707.5C223 740.913 195.913 768 162.5 768C129.087 768 102 740.913 102 707.5C102 674.087 129.087 647 162.5 647C195.913 647 223 674.087 223 707.5ZM162.5 763C193.152 763 218 738.152 218 707.5C218 676.848 193.152 652 162.5 652C131.848 652 107 676.848 107 707.5C107 738.152 131.848 763 162.5 763ZM426.5 545C449.42 545 468 526.42 468 503.5C468 480.58 449.42 462 426.5 462C403.58 462 385 480.58 385 503.5C385 526.42 403.58 545 426.5 545ZM463 503.5C463 523.658 446.658 540 426.5 540C406.342 540 390 523.658 390 503.5C390 483.342 406.342 467 426.5 467C446.658 467 463 483.342 463 503.5ZM117 202C117 223.539 99.5391 241 78 241C56.4609 241 39 223.539 39 202C39 180.461 56.4609 163 78 163C99.5391 163 117 180.461 117 202ZM78 236C96.7777 236 112 220.778 112 202C112 183.222 96.7777 168 78 168C59.2223 168 44 183.222 44 202C44 220.778 59.2223 236 78 236ZM790 639C790 663.853 769.853 684 745 684C720.147 684 700 663.853 700 639C700 614.147 720.147 594 745 594C769.853 594 790 614.147 790 639ZM745 679C767.091 679 785 661.091 785 639C785 616.909 767.091 599 745 599C722.909 599 705 616.909 705 639C705 661.091 722.909 679 745 679ZM410 168C434.853 168 455 147.853 455 123C455 98.1472 434.853 78 410 78C385.147 78 365 98.1472 365 123C365 147.853 385.147 168 410 168ZM450 123C450 145.091 432.091 163 410 163C387.909 163 370 145.091 370 123C370 100.909 387.909 83 410 83C432.091 83 450 100.909 450 123ZM119.768 263.232C118.791 262.256 117.209 262.256 116.232 263.232C115.256 264.209 115.256 265.791 116.232 266.768L143.464 294L116.232 321.232C115.256 322.209 115.256 323.791 116.232 324.768C117.209 325.744 118.791 325.744 119.768 324.768L147 297.536L174.232 324.768C175.209 325.744 176.791 325.744 177.768 324.768C178.744 323.791 178.744 322.209 177.768 321.232L150.536 294L177.768 266.768C178.744 265.791 178.744 264.209 177.768 263.232C176.791 262.256 175.209 262.256 174.232 263.232L147 290.464L119.768 263.232ZM275.768 444.232C274.791 443.256 273.209 443.256 272.232 444.232C271.256 445.209 271.256 446.791 272.232 447.768L304.464 480L272.232 512.232C271.256 513.209 271.256 514.791 272.232 515.768C273.209 516.744 274.791 516.744 275.768 515.768L308 483.536L340.232 515.768C341.209 516.744 342.791 516.744 343.768 515.768C344.744 514.791 344.744 513.209 343.768 512.232L311.536 480L343.768 447.768C344.744 446.791 344.744 445.209 343.768 444.232C342.791 443.256 341.209 443.256 340.232 444.232L308 476.464L275.768 444.232ZM343.232 656.232C344.209 655.256 345.791 655.256 346.768 656.232L379 688.464L411.232 656.232C412.209 655.256 413.791 655.256 414.768 656.232C415.744 657.209 415.744 658.791 414.768 659.768L382.536 692L414.768 724.232C415.744 725.209 415.744 726.791 414.768 727.768C413.791 728.744 412.209 728.744 411.232 727.768L379 695.536L346.768 727.768C345.791 728.744 344.209 728.744 343.232 727.768C342.256 726.791 342.256 725.209 343.232 724.232L375.464 692L343.232 659.768C342.256 658.791 342.256 657.209 343.232 656.232ZM196.768 274.232C195.791 273.256 194.209 273.256 193.232 274.232C192.256 275.209 192.256 276.791 193.232 277.768L209.964 294.5L193.232 311.232C192.256 312.209 192.256 313.791 193.232 314.768C194.209 315.744 195.791 315.744 196.768 314.768L213.5 298.036L230.232 314.768C231.209 315.744 232.791 315.744 233.768 314.768C234.744 313.791 234.744 312.209 233.768 311.232L217.036 294.5L233.768 277.768C234.744 276.791 234.744 275.209 233.768 274.232C232.791 273.256 231.209 273.256 230.232 274.232L213.5 290.964L196.768 274.232ZM328.232 50.2322C329.209 49.2559 330.791 49.2559 331.768 50.2322L348.5 66.9645L365.232 50.2322C366.209 49.2559 367.791 49.2559 368.768 50.2322C369.744 51.2085 369.744 52.7915 368.768 53.7678L352.036 70.5L368.768 87.2322C369.744 88.2085 369.744 89.7915 368.768 90.7678C367.791 91.7441 366.209 91.7441 365.232 90.7678L348.5 74.0355L331.768 90.7678C330.791 91.7441 329.209 91.7441 328.232 90.7678C327.256 89.7915 327.256 88.2085 328.232 87.2322L344.964 70.5L328.232 53.7678C327.256 52.7915 327.256 51.2085 328.232 50.2322ZM464.768 33.2322C463.791 32.2559 462.209 32.2559 461.232 33.2322C460.256 34.2085 460.256 35.7915 461.232 36.7678L474.464 50L461.232 63.2322C460.256 64.2085 460.256 65.7915 461.232 66.7678C462.209 67.7441 463.791 67.7441 464.768 66.7678L478 53.5355L491.232 66.7678C492.209 67.7441 493.791 67.7441 494.768 66.7678C495.744 65.7915 495.744 64.2085 494.768 63.2322L481.536 50L494.768 36.7678C495.744 35.7915 495.744 34.2085 494.768 33.2322C493.791 32.2559 492.209 32.2559 491.232 33.2322L478 46.4645L464.768 33.2322ZM599.232 132.232C600.209 131.256 601.791 131.256 602.768 132.232L616 145.464L629.232 132.232C630.209 131.256 631.791 131.256 632.768 132.232C633.744 133.209 633.744 134.791 632.768 135.768L619.536 149L632.768 162.232C633.744 163.209 633.744 164.791 632.768 165.768C631.791 166.744 630.209 166.744 629.232 165.768L616 152.536L602.768 165.768C601.791 166.744 600.209 166.744 599.232 165.768C598.256 164.791 598.256 163.209 599.232 162.232L612.464 149L599.232 135.768C598.256 134.791 598.256 133.209 599.232 132.232ZM602.768 170.232C601.791 169.256 600.209 169.256 599.232 170.232C598.256 171.209 598.256 172.791 599.232 173.768L612.464 187L599.232 200.232C598.256 201.209 598.256 202.791 599.232 203.768C600.209 204.744 601.791 204.744 602.768 203.768L616 190.536L629.232 203.768C630.209 204.744 631.791 204.744 632.768 203.768C633.744 202.791 633.744 201.209 632.768 200.232L619.536 187L632.768 173.768C633.744 172.791 633.744 171.209 632.768 170.232C631.791 169.256 630.209 169.256 629.232 170.232L616 183.464L602.768 170.232ZM636.232 170.232C637.209 169.256 638.791 169.256 639.768 170.232L653 183.464L666.232 170.232C667.209 169.256 668.791 169.256 669.768 170.232C670.744 171.209 670.744 172.791 669.768 173.768L656.536 187L669.768 200.232C670.744 201.209 670.744 202.791 669.768 203.768C668.791 204.744 667.209 204.744 666.232 203.768L653 190.536L639.768 203.768C638.791 204.744 637.209 204.744 636.232 203.768C635.256 202.791 635.256 201.209 636.232 200.232L649.464 187L636.232 173.768C635.256 172.791 635.256 171.209 636.232 170.232ZM676.768 170.232C675.791 169.256 674.209 169.256 673.232 170.232C672.256 171.209 672.256 172.791 673.232 173.768L686.464 187L673.232 200.232C672.256 201.209 672.256 202.791 673.232 203.768C674.209 204.744 675.791 204.744 676.768 203.768L690 190.536L703.232 203.768C704.209 204.744 705.791 204.744 706.768 203.768C707.744 202.791 707.744 201.209 706.768 200.232L693.536 187L706.768 173.768C707.744 172.791 707.744 171.209 706.768 170.232C705.791 169.256 704.209 169.256 703.232 170.232L690 183.464L676.768 170.232ZM673.232 132.232C674.209 131.256 675.791 131.256 676.768 132.232L690 145.464L703.232 132.232C704.209 131.256 705.791 131.256 706.768 132.232C707.744 133.209 707.744 134.791 706.768 135.768L693.536 149L706.768 162.232C707.744 163.209 707.744 164.791 706.768 165.768C705.791 166.744 704.209 166.744 703.232 165.768L690 152.536L676.768 165.768C675.791 166.744 674.209 166.744 673.232 165.768C672.256 164.791 672.256 163.209 673.232 162.232L686.464 149L673.232 135.768C672.256 134.791 672.256 133.209 673.232 132.232ZM395.768 338.232C394.791 337.256 393.209 337.256 392.232 338.232C391.256 339.209 391.256 340.791 392.232 341.768L408.964 358.5L392.232 375.232C391.256 376.209 391.256 377.791 392.232 378.768C393.209 379.744 394.791 379.744 395.768 378.768L412.5 362.036L429.232 378.768C430.209 379.744 431.791 379.744 432.768 378.768C433.744 377.791 433.744 376.209 432.768 375.232L416.036 358.5L432.768 341.768C433.744 340.791 433.744 339.209 432.768 338.232C431.791 337.256 430.209 337.256 429.232 338.232L412.5 354.964L395.768 338.232ZM180.768 590.232C179.791 589.256 178.209 589.256 177.232 590.232C176.256 591.209 176.256 592.791 177.232 593.768L193.964 610.5L177.232 627.232C176.256 628.209 176.256 629.791 177.232 630.768C178.209 631.744 179.791 631.744 180.768 630.768L197.5 614.036L214.232 630.768C215.209 631.744 216.791 631.744 217.768 630.768C218.744 629.791 218.744 628.209 217.768 627.232L201.036 610.5L217.768 593.768C218.744 592.791 218.744 591.209 217.768 590.232C216.791 589.256 215.209 589.256 214.232 590.232L197.5 606.964L180.768 590.232ZM709.232 463.232C710.209 462.256 711.791 462.256 712.768 463.232L726 476.464L739.232 463.232C740.209 462.256 741.791 462.256 742.768 463.232C743.744 464.209 743.744 465.791 742.768 466.768L729.536 480L742.768 493.232C743.744 494.209 743.744 495.791 742.768 496.768C741.791 497.744 740.209 497.744 739.232 496.768L726 483.536L712.768 496.768C711.791 497.744 710.209 497.744 709.232 496.768C708.256 495.791 708.256 494.209 709.232 493.232L722.464 480L709.232 466.768C708.256 465.791 708.256 464.209 709.232 463.232ZM539.768 333.232C538.791 332.256 537.209 332.256 536.232 333.232C535.256 334.209 535.256 335.791 536.232 336.768L604.464 405L536.232 473.232C535.256 474.209 535.256 475.791 536.232 476.768C537.209 477.744 538.791 477.744 539.768 476.768L608 408.536L676.232 476.768C677.209 477.744 678.791 477.744 679.768 476.768C680.744 475.791 680.744 474.209 679.768 473.232L611.536 405L679.768 336.768C680.744 335.791 680.744 334.209 679.768 333.232C678.791 332.256 677.209 332.256 676.232 333.232L608 401.464L539.768 333.232ZM197.255 46.5C198.636 46.5 199.755 47.6193 199.755 49V59.5H210C211.381 59.5 212.5 60.6193 212.5 62C212.5 63.3807 211.381 64.5 210 64.5H199.755V75C199.755 76.3807 198.636 77.5 197.255 77.5C195.874 77.5 194.755 76.3807 194.755 75V64.5H184C182.619 64.5 181.5 63.3807 181.5 62C181.5 60.6193 182.619 59.5 184 59.5H194.755V49C194.755 47.6193 195.874 46.5 197.255 46.5ZM476.343 341C476.343 339.619 475.224 338.5 473.843 338.5C472.462 338.5 471.343 339.619 471.343 341V356H456C454.619 356 453.5 357.119 453.5 358.5C453.5 359.881 454.619 361 456 361H471.343V376C471.343 377.381 472.462 378.5 473.843 378.5C475.224 378.5 476.343 377.381 476.343 376V361H491C492.381 361 493.5 359.881 493.5 358.5C493.5 357.119 492.381 356 491 356H476.343V341ZM554.843 274.5C556.224 274.5 557.343 275.619 557.343 277V292H572C573.381 292 574.5 293.119 574.5 294.5C574.5 295.881 573.381 297 572 297H557.343V312C557.343 313.381 556.224 314.5 554.843 314.5C553.462 314.5 552.343 313.381 552.343 312V297H537C535.619 297 534.5 295.881 534.5 294.5C534.5 293.119 535.619 292 537 292H552.343V277C552.343 275.619 553.462 274.5 554.843 274.5ZM697.343 541C697.343 539.619 696.224 538.5 694.843 538.5C693.462 538.5 692.343 539.619 692.343 541V556H677C675.619 556 674.5 557.119 674.5 558.5C674.5 559.881 675.619 561 677 561H692.343V576C692.343 577.381 693.462 578.5 694.843 578.5C696.224 578.5 697.343 577.381 697.343 576V561H712C713.381 561 714.5 559.881 714.5 558.5C714.5 557.119 713.381 556 712 556H697.343V541ZM555.039 174.5C556.42 174.5 557.539 175.619 557.539 177V202H582C583.381 202 584.5 203.119 584.5 204.5C584.5 205.881 583.381 207 582 207H557.539V232C557.539 233.381 556.42 234.5 555.039 234.5C553.659 234.5 552.539 233.381 552.539 232V207H527C525.619 207 524.5 205.881 524.5 204.5C524.5 203.119 525.619 202 527 202H552.539V177C552.539 175.619 553.659 174.5 555.039 174.5ZM641.539 214C641.539 212.619 640.42 211.5 639.039 211.5C637.659 211.5 636.539 212.619 636.539 214V239H611C609.619 239 608.5 240.119 608.5 241.5C608.5 242.881 609.619 244 611 244H636.539V269C636.539 270.381 637.659 271.5 639.039 271.5C640.42 271.5 641.539 270.381 641.539 269V244H666C667.381 244 668.5 242.881 668.5 241.5C668.5 240.119 667.381 239 666 239H641.539V214ZM555.686 85.5C557.067 85.5 558.186 86.6193 558.186 88V120.5H590C591.381 120.5 592.5 121.619 592.5 123C592.5 124.381 591.381 125.5 590 125.5H558.186V158C558.186 159.381 557.067 160.5 555.686 160.5C554.306 160.5 553.186 159.381 553.186 158V125.5H520C518.619 125.5 517.5 124.381 517.5 123C517.5 121.619 518.619 120.5 520 120.5H553.186V88C553.186 86.6193 554.306 85.5 555.686 85.5ZM179.186 347C179.186 345.619 178.067 344.5 176.686 344.5C175.306 344.5 174.186 345.619 174.186 347V379.5H141C139.619 379.5 138.5 380.619 138.5 382C138.5 383.381 139.619 384.5 141 384.5H174.186V417C174.186 418.381 175.306 419.5 176.686 419.5C178.067 419.5 179.186 418.381 179.186 417V384.5H211C212.381 384.5 213.5 383.381 213.5 382C213.5 380.619 212.381 379.5 211 379.5H179.186V347ZM371.039 260.5C372.42 260.5 373.539 261.619 373.539 263V288H398C399.381 288 400.5 289.119 400.5 290.5C400.5 291.881 399.381 293 398 293H373.539V318C373.539 319.381 372.42 320.5 371.039 320.5C369.659 320.5 368.539 319.381 368.539 318V293H343C341.619 293 340.5 291.881 340.5 290.5C340.5 289.119 341.619 288 343 288H368.539V263C368.539 261.619 369.659 260.5 371.039 260.5ZM760 90.5C760 89.1193 758.881 88 757.5 88C756.119 88 755 89.1193 755 90.5V137.5C755 138.881 756.119 140 757.5 140C758.881 140 760 138.881 760 137.5V90.5ZM736 236.5C737.381 236.5 738.5 237.619 738.5 239V316C738.5 317.381 737.381 318.5 736 318.5C734.619 318.5 733.5 317.381 733.5 316V239C733.5 237.619 734.619 236.5 736 236.5ZM102.5 344C102.5 342.619 101.381 341.5 100 341.5C98.6193 341.5 97.5 342.619 97.5 344V421C97.5 422.381 98.6193 423.5 100 423.5C101.381 423.5 102.5 422.381 102.5 421V344ZM86 341.5C87.3807 341.5 88.5 342.619 88.5 344V421C88.5 422.381 87.3807 423.5 86 423.5C84.6193 423.5 83.5 422.381 83.5 421V344C83.5 342.619 84.6193 341.5 86 341.5ZM247.5 120C247.5 118.619 248.619 117.5 250 117.5H333C334.381 117.5 335.5 118.619 335.5 120C335.5 121.381 334.381 122.5 333 122.5H250C248.619 122.5 247.5 121.381 247.5 120ZM250 139.5C248.619 139.5 247.5 140.619 247.5 142C247.5 143.381 248.619 144.5 250 144.5H333C334.381 144.5 335.5 143.381 335.5 142C335.5 140.619 334.381 139.5 333 139.5H250ZM247.5 164C247.5 162.619 248.619 161.5 250 161.5H333C334.381 161.5 335.5 162.619 335.5 164C335.5 165.381 334.381 166.5 333 166.5H250C248.619 166.5 247.5 165.381 247.5 164ZM250 183.5C248.619 183.5 247.5 184.619 247.5 186C247.5 187.381 248.619 188.5 250 188.5H333C334.381 188.5 335.5 187.381 335.5 186C335.5 184.619 334.381 183.5 333 183.5H250ZM611.5 71C611.5 69.6193 612.619 68.5 614 68.5H691C692.381 68.5 693.5 69.6193 693.5 71C693.5 72.3807 692.381 73.5 691 73.5H614C612.619 73.5 611.5 72.3807 611.5 71ZM423 180.5C421.619 180.5 420.5 181.619 420.5 183C420.5 184.381 421.619 185.5 423 185.5H507C508.381 185.5 509.5 184.381 509.5 183C509.5 181.619 508.381 180.5 507 180.5H423ZM697.5 347C697.5 345.619 698.619 344.5 700 344.5H783C784.381 344.5 785.5 345.619 785.5 347C785.5 348.381 784.381 349.5 783 349.5H700C698.619 349.5 697.5 348.381 697.5 347ZM700 356.5C698.619 356.5 697.5 357.619 697.5 359C697.5 360.381 698.619 361.5 700 361.5H783C784.381 361.5 785.5 360.381 785.5 359C785.5 357.619 784.381 356.5 783 356.5H700ZM697.5 371C697.5 369.619 698.619 368.5 700 368.5H783C784.381 368.5 785.5 369.619 785.5 371C785.5 372.381 784.381 373.5 783 373.5H700C698.619 373.5 697.5 372.381 697.5 371ZM489 511.5C487.619 511.5 486.5 512.619 486.5 514C486.5 515.381 487.619 516.5 489 516.5L570 516.5C571.381 516.5 572.5 515.381 572.5 514C572.5 512.619 571.381 511.5 570 511.5L489 511.5ZM397.5 604C397.5 602.619 398.619 601.5 400 601.5L483 601.5C484.381 601.5 485.5 602.619 485.5 604C485.5 605.381 484.381 606.5 483 606.5L400 606.5C398.619 606.5 397.5 605.381 397.5 604ZM262 636.5C260.619 636.5 259.5 637.619 259.5 639C259.5 640.381 260.619 641.5 262 641.5L317 641.5C318.381 641.5 319.5 640.381 319.5 639C319.5 637.619 318.381 636.5 317 636.5L262 636.5ZM250.5 703C250.5 701.619 251.619 700.5 253 700.5H325C326.381 700.5 327.5 701.619 327.5 703C327.5 704.381 326.381 705.5 325 705.5H253C251.619 705.5 250.5 704.381 250.5 703ZM626 48.5C624.619 48.5 623.5 49.6193 623.5 51C623.5 52.3807 624.619 53.5 626 53.5L730 53.5C731.381 53.5 732.5 52.3807 732.5 51C732.5 49.6193 731.381 48.5 730 48.5L626 48.5ZM207.768 199.232C206.791 198.256 205.209 198.256 204.232 199.232L156.232 247.232C155.517 247.947 155.303 249.023 155.69 249.957C156.077 250.891 156.989 251.5 158 251.5H254C255.011 251.5 255.923 250.891 256.31 249.957C256.697 249.023 256.483 247.947 255.768 247.232L207.768 199.232ZM247.964 246.5H164.036L206 204.536L247.964 246.5ZM561.778 590.743C562.741 591.717 562.741 593.283 561.778 594.257L520.778 635.757C520.066 636.478 518.988 636.698 518.05 636.313C517.112 635.927 516.5 635.014 516.5 634V551C516.5 549.986 517.112 549.073 518.05 548.687C518.988 548.302 520.066 548.522 520.778 549.243L561.778 590.743ZM521.5 557.088V627.912L556.486 592.5L521.5 557.088ZM617.206 609.721C615.837 609.729 614.729 610.837 614.721 612.206L614.261 688.187C614.254 689.201 614.861 690.118 615.797 690.509C616.732 690.9 617.811 690.687 618.528 689.97L694.97 613.528C695.687 612.811 695.9 611.732 695.509 610.797C695.118 609.861 694.201 609.254 693.187 609.26L617.206 609.721ZM687.13 614.297L619.297 682.13L619.706 614.706L687.13 614.297ZM228.996 439.363C230.365 439.371 231.472 440.479 231.481 441.848L232.226 564.829C232.232 565.843 231.625 566.76 230.69 567.151C229.754 567.542 228.675 567.329 227.958 566.612L104.232 442.886C103.515 442.169 103.302 441.09 103.693 440.154C104.084 439.218 105.001 438.612 106.015 438.618L228.996 439.363ZM112.072 443.655L227.189 558.772L226.496 444.348L112.072 443.655ZM125.782 622.254C126.739 621.281 126.739 619.719 125.782 618.746L94.7819 587.246C94.0701 586.523 92.9916 586.302 92.0525 586.686C91.1134 587.071 90.5 587.985 90.5 589V652C90.5 653.015 91.1134 653.929 92.0525 654.314C92.9916 654.698 94.0701 654.477 94.7818 653.754L125.782 622.254ZM95.5 645.896V595.104L120.492 620.5L95.5 645.896ZM307.782 48.2536C308.739 47.2806 308.739 45.7194 307.782 44.7464L276.782 13.2464C276.07 12.5231 274.992 12.3019 274.053 12.6865C273.113 13.0711 272.5 13.9852 272.5 15V78C272.5 79.0148 273.113 79.9289 274.053 80.3135C274.992 80.6981 276.07 80.4769 276.782 79.7536L307.782 48.2536ZM277.5 71.8955V21.1045L302.492 46.5L277.5 71.8955ZM110.788 121.753C111.737 122.724 111.737 124.276 110.788 125.247L89.7885 146.747C89.0782 147.474 87.9983 147.699 87.0569 147.315C86.1155 146.932 85.5 146.017 85.5 145V102C85.5 100.983 86.1155 100.068 87.0569 99.6847C87.9983 99.3012 89.0782 99.526 89.7885 100.253L110.788 121.753ZM90.5 108.137V138.863L105.505 123.5L90.5 108.137ZM408.732 398.732C409.709 397.756 411.292 397.756 412.268 398.732L452.5 438.964L492.732 398.732C493.709 397.756 495.292 397.756 496.268 398.732L536.5 438.964L576.732 398.732C577.709 397.756 579.292 397.756 580.268 398.732C581.244 399.709 581.244 401.291 580.268 402.268L538.268 444.268C537.292 445.244 535.709 445.244 534.732 444.268L494.5 404.036L454.268 444.268C453.292 445.244 451.709 445.244 450.732 444.268L410.5 404.036L370.268 444.268C369.291 445.244 367.709 445.244 366.732 444.268C365.756 443.291 365.756 441.709 366.732 440.732L408.732 398.732ZM255.5 343C255.5 342.337 255.763 341.701 256.232 341.232L286.465 311L256.232 280.768C255.763 280.299 255.5 279.663 255.5 279C255.5 278.337 255.763 277.701 256.232 277.232L286.465 247L256.232 216.768C255.256 215.791 255.256 214.209 256.232 213.232C257.209 212.256 258.791 212.256 259.768 213.232L291.768 245.232C292.237 245.701 292.5 246.337 292.5 247C292.5 247.663 292.237 248.299 291.768 248.768L261.536 279L291.768 309.232C292.237 309.701 292.5 310.337 292.5 311C292.5 311.663 292.237 312.299 291.768 312.768L261.536 343L291.768 373.232C292.744 374.209 292.744 375.791 291.768 376.768C290.792 377.744 289.209 377.744 288.232 376.768L256.232 344.768C255.763 344.299 255.5 343.663 255.5 343ZM635.768 725.232C634.792 724.256 633.209 724.256 632.232 725.232L603.232 754.232C602.256 755.209 602.256 756.791 603.232 757.768C604.209 758.744 605.792 758.744 606.768 757.768L634 730.536L661.232 757.768C662.209 758.744 663.792 758.744 664.768 757.768L692 730.536L719.232 757.768C720.209 758.744 721.792 758.744 722.768 757.768L751.768 728.768C752.744 727.791 752.744 726.209 751.768 725.232C750.792 724.256 749.209 724.256 748.232 725.232L721 752.464L693.768 725.232C692.792 724.256 691.209 724.256 690.232 725.232L663 752.464L635.768 725.232ZM476.077 623.028C477.458 623.028 478.577 624.147 478.577 625.528V668.127H521.176C521.839 668.127 522.475 668.39 522.944 668.859C523.413 669.328 523.676 669.964 523.676 670.627V713.226H566.275C567.656 713.226 568.775 714.345 568.775 715.726C568.775 717.106 567.656 718.226 566.275 718.226H521.176C520.513 718.226 519.877 717.962 519.409 717.493C518.94 717.025 518.676 716.389 518.676 715.726V673.127H476.077C475.414 673.127 474.778 672.863 474.31 672.395C473.841 671.926 473.577 671.29 473.577 670.627V628.028H430.978C429.598 628.028 428.478 626.908 428.478 625.528C428.478 624.147 429.598 623.028 430.978 623.028H476.077ZM653.339 284.2C652.87 284.669 652.606 285.305 652.606 285.968V308.021H630.553C629.89 308.021 629.254 308.285 628.785 308.754C628.317 309.222 628.053 309.858 628.053 310.521V332.575H606C604.619 332.575 603.5 333.694 603.5 335.075C603.5 336.455 604.619 337.575 606 337.575H630.553C631.216 337.575 631.852 337.311 632.321 336.842C632.79 336.373 633.053 335.738 633.053 335.075V313.021H655.106C655.769 313.021 656.405 312.758 656.874 312.289C657.343 311.82 657.606 311.184 657.606 310.521V288.468H679.659C681.04 288.468 682.159 287.349 682.159 285.968C682.159 284.588 681.04 283.468 679.659 283.468H655.106C654.443 283.468 653.807 283.732 653.339 284.2Z" fill="black"/>
</g>
<defs>
<clipPath id="clip0">
<rect width="811" height="811" fill="white"/>
</clipPath>
</defs>
</svg>
